<svg width="1240" height="980" viewBox="0 0 1240 980" fill="none" xmlns="http://www.w3.org/2000/svg">
  <rect width="1240" height="980" fill="#F7F2E9"/>
  <rect x="0" y="0" width="1240" height="980" fill="url(#paint0_linear_577_12)"/>
  <rect x="126" y="102" width="246" height="312" fill="#FFFDF9"/>
  <rect x="474" y="66" width="280" height="364" fill="#FFFDF9"/>
  <rect x="846" y="72" width="250" height="298" fill="#FFFDF9"/>
  <rect x="128" y="500" width="270" height="328" fill="#FFFDF9"/>
  <rect x="510" y="438" width="302" height="408" fill="#FFFDF9"/>
  <rect x="888" y="470" width="248" height="360" fill="#FFFDF9"/>
  <rect x="152" y="140" width="198" height="236" fill="#FCFAF5"/>
  <rect x="512" y="104" width="208" height="284" fill="#FCFAF5"/>
  <rect x="884" y="116" width="182" height="218" fill="#FCFAF5"/>
  <rect x="160" y="534" width="210" height="258" fill="#FCFAF5"/>
  <rect x="540" y="470" width="238" height="332" fill="#FCFAF5"/>
  <rect x="916" y="510" width="190" height="282" fill="#FCFAF5"/>
  <rect x="116" y="286" width="22" height="34" fill="#1E1713"/>
  <rect x="558" y="408" width="36" height="14" fill="#1E1713"/>
  <rect x="954" y="428" width="42" height="16" fill="#1E1713"/>
  <path d="M238 210C214 228 204 262 204 308" stroke="#161210" stroke-width="6" stroke-linecap="round"/>
  <path d="M238 210C266 208 290 218 306 240" stroke="#161210" stroke-width="6" stroke-linecap="round"/>
  <path d="M242 224C228 270 230 320 248 358" stroke="#161210" stroke-width="6" stroke-linecap="round"/>
  <path d="M252 226C282 252 296 300 294 360" stroke="#161210" stroke-width="6" stroke-linecap="round"/>
  <path d="M584 178C606 148 642 136 676 142" stroke="#161210" stroke-width="7" stroke-linecap="round"/>
  <path d="M602 194C616 250 602 322 574 360" stroke="#161210" stroke-width="7" stroke-linecap="round"/>
  <path d="M642 178C674 218 690 270 692 354" stroke="#161210" stroke-width="7" stroke-linecap="round"/>
  <path d="M686 172C728 232 742 294 730 366" stroke="#161210" stroke-width="7" stroke-linecap="round"/>
  <path d="M940 156C968 140 1000 140 1032 154" stroke="#161210" stroke-width="6" stroke-linecap="round"/>
  <path d="M942 182C986 204 1012 248 1016 314" stroke="#161210" stroke-width="6" stroke-linecap="round"/>
  <path d="M1018 178C992 224 980 270 980 326" stroke="#161210" stroke-width="6" stroke-linecap="round"/>
  <path d="M238 586C222 604 214 648 214 700" stroke="#161210" stroke-width="6" stroke-linecap="round"/>
  <path d="M244 594C276 582 306 592 326 624" stroke="#161210" stroke-width="6" stroke-linecap="round"/>
  <path d="M530 584C548 534 586 510 632 514" stroke="#161210" stroke-width="7" stroke-linecap="round"/>
  <path d="M562 582C534 640 530 702 548 774" stroke="#161210" stroke-width="7" stroke-linecap="round"/>
  <path d="M624 558C664 596 676 664 666 784" stroke="#161210" stroke-width="7" stroke-linecap="round"/>
  <path d="M712 566C760 612 776 682 754 792" stroke="#161210" stroke-width="7" stroke-linecap="round"/>
  <path d="M972 560C1008 540 1046 540 1078 562" stroke="#161210" stroke-width="6" stroke-linecap="round"/>
  <path d="M956 612C992 622 1018 652 1032 696" stroke="#161210" stroke-width="6" stroke-linecap="round"/>
  <path d="M1048 606C1080 632 1100 674 1104 742" stroke="#161210" stroke-width="6" stroke-linecap="round"/>
  <defs>
    <linearGradient id="paint0_linear_577_12" x1="620" y1="0" x2="620" y2="980" gradientUnits="userSpaceOnUse">
      <stop stop-color="#F9F4EC"/>
      <stop offset="1" stop-color="#F3ECE3"/>
    </linearGradient>
  </defs>
</svg>
