<svg width="800" height="960" viewBox="0 0 800 960" fill="none" xmlns="http://www.w3.org/2000/svg">
  <rect width="800" height="960" fill="#F7EFE6"/>
  <rect x="72" y="72" width="268" height="340" rx="22" transform="rotate(-8 72 72)" fill="#FFF9F3"/>
  <rect x="402" y="64" width="250" height="300" rx="22" transform="rotate(7 402 64)" fill="#FFF9F3"/>
  <rect x="112" y="462" width="264" height="320" rx="22" transform="rotate(5 112 462)" fill="#FFF9F3"/>
  <rect x="424" y="430" width="250" height="320" rx="22" transform="rotate(-6 424 430)" fill="#FFF9F3"/>
  <rect x="286" y="740" width="184" height="150" rx="20" fill="#FFF9F3"/>
  <circle cx="206" cy="174" r="34" fill="#7A4C32"/>
  <path d="M154 270C166 222 194 198 224 198C252 198 278 220 288 266" stroke="#1F1512" stroke-width="8" stroke-linecap="round"/>
  <path d="M186 220L152 330" stroke="#1F1512" stroke-width="6" stroke-linecap="round"/>
  <path d="M246 218L286 332" stroke="#1F1512" stroke-width="6" stroke-linecap="round"/>
  <path d="M176 332C206 308 236 306 268 332" fill="#2F6C67"/>
  <path d="M176 332C206 308 236 306 268 332" stroke="#2F6C67" stroke-width="8" stroke-linecap="round" stroke-linejoin="round"/>
  <circle cx="536" cy="156" r="28" fill="#8C5B3D"/>
  <path d="M494 250C504 212 528 190 556 190C580 190 606 210 618 248" stroke="#201714" stroke-width="7" stroke-linecap="round"/>
  <path d="M510 228L478 308" stroke="#201714" stroke-width="5" stroke-linecap="round"/>
  <path d="M592 230L620 304" stroke="#201714" stroke-width="5" stroke-linecap="round"/>
  <path d="M514 308L602 308" stroke="#C9895E" stroke-width="16" stroke-linecap="round"/>
  <circle cx="226" cy="560" r="26" fill="#6F442F"/>
  <path d="M192 636C200 598 224 576 248 576C270 576 294 596 304 634" stroke="#1E1512" stroke-width="7" stroke-linecap="round"/>
  <path d="M214 610L174 696" stroke="#1E1512" stroke-width="5" stroke-linecap="round"/>
  <path d="M278 610L314 690" stroke="#1E1512" stroke-width="5" stroke-linecap="round"/>
  <path d="M196 702C222 680 252 676 288 704" stroke="#CDA9BA" stroke-width="12" stroke-linecap="round" stroke-linejoin="round"/>
  <circle cx="544" cy="528" r="24" fill="#8B5D44"/>
  <path d="M510 604C518 572 540 552 562 552C586 552 604 570 614 604" stroke="#1F1714" stroke-width="7" stroke-linecap="round"/>
  <path d="M520 584L486 666" stroke="#1F1714" stroke-width="5" stroke-linecap="round"/>
  <path d="M592 584L618 656" stroke="#1F1714" stroke-width="5" stroke-linecap="round"/>
  <path d="M516 664L610 664" stroke="#E7BF72" stroke-width="14" stroke-linecap="round"/>
  <circle cx="378" cy="796" r="20" fill="#6E4634"/>
  <path d="M348 848C352 824 370 808 390 808C408 808 428 822 436 846" stroke="#201613" stroke-width="6" stroke-linecap="round"/>
  <path d="M356 834L334 884" stroke="#201613" stroke-width="4" stroke-linecap="round"/>
  <path d="M414 832L436 884" stroke="#201613" stroke-width="4" stroke-linecap="round"/>
  <path d="M352 886C374 868 398 868 424 886" stroke="#A6B8C2" stroke-width="10" stroke-linecap="round"/>
  <path d="M116 872C224 908 332 924 470 920" stroke="#D5B8A7" stroke-width="6" stroke-linecap="round"/>
</svg>
