<svg width="1200" height="900" viewBox="0 0 1200 900" fill="none" xmlns="http://www.w3.org/2000/svg">
  <rect width="1200" height="900" fill="#F5EEE6"/>
  <rect x="92" y="92" width="1016" height="716" rx="36" fill="#FFF9F3"/>
  <rect x="134" y="136" width="304" height="620" rx="28" fill="#F2E6DA"/>
  <rect x="452" y="136" width="294" height="620" rx="28" fill="#FBF4ED"/>
  <rect x="760" y="136" width="306" height="620" rx="28" fill="#F2E6DA"/>
  <circle cx="594" cy="248" r="52" fill="#7C4D34"/>
  <path d="M532 356C546 304 582 272 622 272C660 272 700 306 712 360" stroke="#C78860" stroke-width="10" stroke-linecap="round"/>
  <path d="M546 394C622 350 676 354 724 398" stroke="#B77854" stroke-width="18" stroke-linecap="round"/>
  <path d="M210 274C210 228 248 190 294 190C338 190 376 228 376 274C376 316 350 352 294 382C240 354 210 318 210 274Z" fill="#6D4430"/>
  <path d="M250 458L386 458" stroke="#BA7A57" stroke-width="18" stroke-linecap="round"/>
  <path d="M828 278C828 236 860 202 902 202C944 202 978 236 978 278V470H828V278Z" fill="#D9D0C5"/>
  <path d="M902 198V152" stroke="#917D6D" stroke-width="10" stroke-linecap="round"/>
</svg>
