<svg width="1200" height="630" viewBox="0 0 1200 630" fill="none" xmlns="http://www.w3.org/2000/svg">
  <rect width="1200" height="630" fill="#F5EEE6"/>
  <rect x="54" y="54" width="1092" height="522" rx="34" fill="#FFF9F3"/>
  <rect x="706" y="98" width="354" height="434" rx="28" fill="#F1E4D8"/>
  <circle cx="862" cy="220" r="54" fill="#7A4C33"/>
  <path d="M796 326C812 274 850 242 894 242C936 242 972 276 986 330" stroke="#201613" stroke-width="10" stroke-linecap="round"/>
  <path d="M814 294L752 432" stroke="#201613" stroke-width="6" stroke-linecap="round"/>
  <path d="M918 292L986 438" stroke="#201613" stroke-width="6" stroke-linecap="round"/>
  <path d="M786 448C860 402 930 404 1010 456" stroke="#BA7A57" stroke-width="18" stroke-linecap="round" stroke-linejoin="round"/>
  <path d="M128 170H580" stroke="#D2B09A" stroke-width="18" stroke-linecap="round"/>
  <path d="M128 226H490" stroke="#E3D0C0" stroke-width="14" stroke-linecap="round"/>
  <path d="M128 278H544" stroke="#E3D0C0" stroke-width="14" stroke-linecap="round"/>
  <text x="128" y="394" fill="#1F1512" font-family="Georgia, serif" font-size="86" font-style="italic">
    FelaaAtelier
  </text>
  <text x="128" y="458" fill="#BA7A57" font-family="Arial, sans-serif" font-size="28" letter-spacing="6">
    TEXTILE RELIEF / PATTERN / COUTURE
  </text>
</svg>
